# Deterministic model; metres; Z up
o north_right
v 0.800000 -0.120000 0.000000
v 3.980000 -0.120000 0.000000
v 3.980000 0.000000 0.000000
v 0.800000 0.000000 0.000000
v 0.800000 -0.120000 2.500000
v 3.980000 -0.120000 2.500000
v 3.980000 0.000000 2.500000
v 0.800000 0.000000 2.500000
f 1 4 3 2
f 5 6 7 8
f 1 2 6 5
f 2 3 7 6
f 3 4 8 7
f 4 1 5 8
o west
v -0.120000 0.000000 0.000000
v 0.000000 0.000000 0.000000
v 0.000000 3.200000 0.000000
v -0.120000 3.200000 0.000000
v -0.120000 0.000000 2.500000
v 0.000000 0.000000 2.500000
v 0.000000 3.200000 2.500000
v -0.120000 3.200000 2.500000
f 9 12 11 10
f 13 14 15 16
f 9 10 14 13
f 10 11 15 14
f 11 12 16 15
f 12 9 13 16
o east
v 3.980000 0.000000 0.000000
v 4.100000 0.000000 0.000000
v 4.100000 4.850000 0.000000
v 3.980000 4.850000 0.000000
v 3.980000 0.000000 2.500000
v 4.100000 0.000000 2.500000
v 4.100000 4.850000 2.500000
v 3.980000 4.850000 2.500000
f 17 20 19 18
f 21 22 23 24
f 17 18 22 21
f 18 19 23 22
f 19 20 24 23
f 20 17 21 24
o notch_left
v 0.000000 3.200000 0.000000
v 0.200000 3.200000 0.000000
v 0.200000 3.320000 0.000000
v 0.000000 3.320000 0.000000
v 0.000000 3.200000 2.500000
v 0.200000 3.200000 2.500000
v 0.200000 3.320000 2.500000
v 0.000000 3.320000 2.500000
f 25 28 27 26
f 29 30 31 32
f 25 26 30 29
f 26 27 31 30
f 27 28 32 31
f 28 25 29 32
o notch_right
v 1.000000 3.200000 0.000000
v 1.080000 3.200000 0.000000
v 1.080000 3.320000 0.000000
v 1.000000 3.320000 0.000000
v 1.000000 3.200000 2.500000
v 1.080000 3.200000 2.500000
v 1.080000 3.320000 2.500000
v 1.000000 3.320000 2.500000
f 33 36 35 34
f 37 38 39 40
f 33 34 38 37
f 34 35 39 38
f 35 36 40 39
f 36 33 37 40
o notch_vertical
v 0.960000 3.320000 0.000000
v 1.080000 3.320000 0.000000
v 1.080000 4.850000 0.000000
v 0.960000 4.850000 0.000000
v 0.960000 3.320000 2.500000
v 1.080000 3.320000 2.500000
v 1.080000 4.850000 2.500000
v 0.960000 4.850000 2.500000
f 41 44 43 42
f 45 46 47 48
f 41 42 46 45
f 42 43 47 46
f 43 44 48 47
f 44 41 45 48
o sofa
v 1.100000 0.150000 0.000000
v 1.950000 0.150000 0.000000
v 1.950000 1.950000 0.000000
v 1.100000 1.950000 0.000000
v 1.100000 0.150000 0.800000
v 1.950000 0.150000 0.800000
v 1.950000 1.950000 0.800000
v 1.100000 1.950000 0.800000
f 49 52 51 50
f 53 54 55 56
f 49 50 54 53
f 50 51 55 54
f 51 52 56 55
f 52 49 53 56
o tv_cabinet
v 3.560000 0.200000 0.000000
v 3.980000 0.200000 0.000000
v 3.980000 1.988000 0.000000
v 3.560000 1.988000 0.000000
v 3.560000 0.200000 0.562000
v 3.980000 0.200000 0.562000
v 3.980000 1.988000 0.562000
v 3.560000 1.988000 0.562000
f 57 60 59 58
f 61 62 63 64
f 57 58 62 61
f 58 59 63 62
f 59 60 64 63
f 60 57 61 64
o dining_table
v 3.180000 3.500000 0.000000
v 3.171353 3.587791 0.000000
v 3.145746 3.672208 0.000000
v 3.104161 3.750007 0.000000
v 3.048198 3.818198 0.000000
v 2.980007 3.874161 0.000000
v 2.902208 3.915746 0.000000
v 2.817791 3.941353 0.000000
v 2.730000 3.950000 0.000000
v 2.642209 3.941353 0.000000
v 2.557792 3.915746 0.000000
v 2.479993 3.874161 0.000000
v 2.411802 3.818198 0.000000
v 2.355839 3.750007 0.000000
v 2.314254 3.672208 0.000000
v 2.288647 3.587791 0.000000
v 2.280000 3.500000 0.000000
v 2.288647 3.412209 0.000000
v 2.314254 3.327792 0.000000
v 2.355839 3.249993 0.000000
v 2.411802 3.181802 0.000000
v 2.479993 3.125839 0.000000
v 2.557792 3.084254 0.000000
v 2.642209 3.058647 0.000000
v 2.730000 3.050000 0.000000
v 2.817791 3.058647 0.000000
v 2.902208 3.084254 0.000000
v 2.980007 3.125839 0.000000
v 3.048198 3.181802 0.000000
v 3.104161 3.249993 0.000000
v 3.145746 3.327792 0.000000
v 3.171353 3.412209 0.000000
v 3.180000 3.500000 0.750000
v 3.171353 3.587791 0.750000
v 3.145746 3.672208 0.750000
v 3.104161 3.750007 0.750000
v 3.048198 3.818198 0.750000
v 2.980007 3.874161 0.750000
v 2.902208 3.915746 0.750000
v 2.817791 3.941353 0.750000
v 2.730000 3.950000 0.750000
v 2.642209 3.941353 0.750000
v 2.557792 3.915746 0.750000
v 2.479993 3.874161 0.750000
v 2.411802 3.818198 0.750000
v 2.355839 3.750007 0.750000
v 2.314254 3.672208 0.750000
v 2.288647 3.587791 0.750000
v 2.280000 3.500000 0.750000
v 2.288647 3.412209 0.750000
v 2.314254 3.327792 0.750000
v 2.355839 3.249993 0.750000
v 2.411802 3.181802 0.750000
v 2.479993 3.125839 0.750000
v 2.557792 3.084254 0.750000
v 2.642209 3.058647 0.750000
v 2.730000 3.050000 0.750000
v 2.817791 3.058647 0.750000
v 2.902208 3.084254 0.750000
v 2.980007 3.125839 0.750000
v 3.048198 3.181802 0.750000
v 3.104161 3.249993 0.750000
v 3.145746 3.327792 0.750000
v 3.171353 3.412209 0.750000
f 96 95 94 93 92 91 90 89 88 87 86 85 84 83 82 81 80 79 78 77 76 75 74 73 72 71 70 69 68 67 66 65
f 97 98 99 100 101 102 103 104 105 106 107 108 109 110 111 112 113 114 115 116 117 118 119 120 121 122 123 124 125 126 127 128
f 65 66 98 97
f 66 67 99 98
f 67 68 100 99
f 68 69 101 100
f 69 70 102 101
f 70 71 103 102
f 71 72 104 103
f 72 73 105 104
f 73 74 106 105
f 74 75 107 106
f 75 76 108 107
f 76 77 109 108
f 77 78 110 109
f 78 79 111 110
f 79 80 112 111
f 80 81 113 112
f 81 82 114 113
f 82 83 115 114
f 83 84 116 115
f 84 85 117 116
f 85 86 118 117
f 86 87 119 118
f 87 88 120 119
f 88 89 121 120
f 89 90 122 121
f 90 91 123 122
f 91 92 124 123
f 92 93 125 124
f 93 94 126 125
f 94 95 127 126
f 95 96 128 127
f 96 65 97 128
o dining_chair_1
v 2.000000 2.530000 0.000000
v 2.450000 2.530000 0.000000
v 2.450000 3.030000 0.000000
v 2.000000 3.030000 0.000000
v 2.000000 2.530000 0.800000
v 2.450000 2.530000 0.800000
v 2.450000 3.030000 0.800000
v 2.000000 3.030000 0.800000
f 129 132 131 130
f 133 134 135 136
f 129 130 134 133
f 130 131 135 134
f 131 132 136 135
f 132 129 133 136
o dining_chair_2
v 3.160000 2.530000 0.000000
v 3.610000 2.530000 0.000000
v 3.610000 3.030000 0.000000
v 3.160000 3.030000 0.000000
v 3.160000 2.530000 0.800000
v 3.610000 2.530000 0.800000
v 3.610000 3.030000 0.800000
v 3.160000 3.030000 0.800000
f 137 140 139 138
f 141 142 143 144
f 137 138 142 141
f 138 139 143 142
f 139 140 144 143
f 140 137 141 144
o hall_leaf
v 0.000000 0.000000 0.000000
v 0.363192 0.712805 0.000000
v 0.363192 0.712805 2.050000
v 0.000000 0.000000 2.050000
f 145 146 147 148
o kitchen_leaf
v 1.000000 3.200000 0.000000
v 0.636808 3.912805 0.000000
v 0.636808 3.912805 2.050000
v 1.000000 3.200000 2.050000
f 149 150 151 152
