# Deterministic model; metres; Z up
o north_right
v 0.800000 -0.120000 0.000000
v 3.980000 -0.120000 0.000000
v 3.980000 0.000000 0.000000
v 0.800000 0.000000 0.000000
v 0.800000 -0.120000 2.500000
v 3.980000 -0.120000 2.500000
v 3.980000 0.000000 2.500000
v 0.800000 0.000000 2.500000
f 1 4 3 2
f 5 6 7 8
f 1 2 6 5
f 2 3 7 6
f 3 4 8 7
f 4 1 5 8
o west
v -0.120000 0.000000 0.000000
v 0.000000 0.000000 0.000000
v 0.000000 3.200000 0.000000
v -0.120000 3.200000 0.000000
v -0.120000 0.000000 2.500000
v 0.000000 0.000000 2.500000
v 0.000000 3.200000 2.500000
v -0.120000 3.200000 2.500000
f 9 12 11 10
f 13 14 15 16
f 9 10 14 13
f 10 11 15 14
f 11 12 16 15
f 12 9 13 16
o east
v 3.980000 0.000000 0.000000
v 4.100000 0.000000 0.000000
v 4.100000 4.850000 0.000000
v 3.980000 4.850000 0.000000
v 3.980000 0.000000 2.500000
v 4.100000 0.000000 2.500000
v 4.100000 4.850000 2.500000
v 3.980000 4.850000 2.500000
f 17 20 19 18
f 21 22 23 24
f 17 18 22 21
f 18 19 23 22
f 19 20 24 23
f 20 17 21 24
o notch_left
v 0.000000 3.200000 0.000000
v 0.200000 3.200000 0.000000
v 0.200000 3.320000 0.000000
v 0.000000 3.320000 0.000000
v 0.000000 3.200000 2.500000
v 0.200000 3.200000 2.500000
v 0.200000 3.320000 2.500000
v 0.000000 3.320000 2.500000
f 25 28 27 26
f 29 30 31 32
f 25 26 30 29
f 26 27 31 30
f 27 28 32 31
f 28 25 29 32
o notch_right
v 1.000000 3.200000 0.000000
v 1.080000 3.200000 0.000000
v 1.080000 3.320000 0.000000
v 1.000000 3.320000 0.000000
v 1.000000 3.200000 2.500000
v 1.080000 3.200000 2.500000
v 1.080000 3.320000 2.500000
v 1.000000 3.320000 2.500000
f 33 36 35 34
f 37 38 39 40
f 33 34 38 37
f 34 35 39 38
f 35 36 40 39
f 36 33 37 40
o notch_vertical
v 0.960000 3.320000 0.000000
v 1.080000 3.320000 0.000000
v 1.080000 4.850000 0.000000
v 0.960000 4.850000 0.000000
v 0.960000 3.320000 2.500000
v 1.080000 3.320000 2.500000
v 1.080000 4.850000 2.500000
v 0.960000 4.850000 2.500000
f 41 44 43 42
f 45 46 47 48
f 41 42 46 45
f 42 43 47 46
f 43 44 48 47
f 44 41 45 48
o sofa
v 2.050000 1.450000 0.000000
v 3.650000 1.450000 0.000000
v 3.650000 2.300000 0.000000
v 2.050000 2.300000 0.000000
v 2.050000 1.450000 0.800000
v 3.650000 1.450000 0.800000
v 3.650000 2.300000 0.800000
v 2.050000 2.300000 0.800000
f 49 52 51 50
f 53 54 55 56
f 49 50 54 53
f 50 51 55 54
f 51 52 56 55
f 52 49 53 56
o tv_cabinet
v 1.856000 0.000000 0.000000
v 3.644000 0.000000 0.000000
v 3.644000 0.420000 0.000000
v 1.856000 0.420000 0.000000
v 1.856000 0.000000 0.562000
v 3.644000 0.000000 0.562000
v 3.644000 0.420000 0.562000
v 1.856000 0.420000 0.562000
f 57 60 59 58
f 61 62 63 64
f 57 58 62 61
f 58 59 63 62
f 59 60 64 63
f 60 57 61 64
o reading_chair
v 0.100000 1.100000 0.000000
v 0.850000 1.100000 0.000000
v 0.850000 1.900000 0.000000
v 0.100000 1.900000 0.000000
v 0.100000 1.100000 0.850000
v 0.850000 1.100000 0.850000
v 0.850000 1.900000 0.850000
v 0.100000 1.900000 0.850000
f 65 68 67 66
f 69 70 71 72
f 65 66 70 69
f 66 67 71 70
f 67 68 72 71
f 68 65 69 72
o lamp
v 0.350000 2.125000 0.000000
v 0.347598 2.149386 0.000000
v 0.340485 2.172835 0.000000
v 0.328934 2.194446 0.000000
v 0.313388 2.213388 0.000000
v 0.294446 2.228934 0.000000
v 0.272835 2.240485 0.000000
v 0.249386 2.247598 0.000000
v 0.225000 2.250000 0.000000
v 0.200614 2.247598 0.000000
v 0.177165 2.240485 0.000000
v 0.155554 2.228934 0.000000
v 0.136612 2.213388 0.000000
v 0.121066 2.194446 0.000000
v 0.109515 2.172835 0.000000
v 0.102402 2.149386 0.000000
v 0.100000 2.125000 0.000000
v 0.102402 2.100614 0.000000
v 0.109515 2.077165 0.000000
v 0.121066 2.055554 0.000000
v 0.136612 2.036612 0.000000
v 0.155554 2.021066 0.000000
v 0.177165 2.009515 0.000000
v 0.200614 2.002402 0.000000
v 0.225000 2.000000 0.000000
v 0.249386 2.002402 0.000000
v 0.272835 2.009515 0.000000
v 0.294446 2.021066 0.000000
v 0.313388 2.036612 0.000000
v 0.328934 2.055554 0.000000
v 0.340485 2.077165 0.000000
v 0.347598 2.100614 0.000000
v 0.350000 2.125000 1.400000
v 0.347598 2.149386 1.400000
v 0.340485 2.172835 1.400000
v 0.328934 2.194446 1.400000
v 0.313388 2.213388 1.400000
v 0.294446 2.228934 1.400000
v 0.272835 2.240485 1.400000
v 0.249386 2.247598 1.400000
v 0.225000 2.250000 1.400000
v 0.200614 2.247598 1.400000
v 0.177165 2.240485 1.400000
v 0.155554 2.228934 1.400000
v 0.136612 2.213388 1.400000
v 0.121066 2.194446 1.400000
v 0.109515 2.172835 1.400000
v 0.102402 2.149386 1.400000
v 0.100000 2.125000 1.400000
v 0.102402 2.100614 1.400000
v 0.109515 2.077165 1.400000
v 0.121066 2.055554 1.400000
v 0.136612 2.036612 1.400000
v 0.155554 2.021066 1.400000
v 0.177165 2.009515 1.400000
v 0.200614 2.002402 1.400000
v 0.225000 2.000000 1.400000
v 0.249386 2.002402 1.400000
v 0.272835 2.009515 1.400000
v 0.294446 2.021066 1.400000
v 0.313388 2.036612 1.400000
v 0.328934 2.055554 1.400000
v 0.340485 2.077165 1.400000
v 0.347598 2.100614 1.400000
f 104 103 102 101 100 99 98 97 96 95 94 93 92 91 90 89 88 87 86 85 84 83 82 81 80 79 78 77 76 75 74 73
f 105 106 107 108 109 110 111 112 113 114 115 116 117 118 119 120 121 122 123 124 125 126 127 128 129 130 131 132 133 134 135 136
f 73 74 106 105
f 74 75 107 106
f 75 76 108 107
f 76 77 109 108
f 77 78 110 109
f 78 79 111 110
f 79 80 112 111
f 80 81 113 112
f 81 82 114 113
f 82 83 115 114
f 83 84 116 115
f 84 85 117 116
f 85 86 118 117
f 86 87 119 118
f 87 88 120 119
f 88 89 121 120
f 89 90 122 121
f 90 91 123 122
f 91 92 124 123
f 92 93 125 124
f 93 94 126 125
f 94 95 127 126
f 95 96 128 127
f 96 97 129 128
f 97 98 130 129
f 98 99 131 130
f 99 100 132 131
f 100 101 133 132
f 101 102 134 133
f 102 103 135 134
f 103 104 136 135
f 104 73 105 136
o dining_table
v 3.180000 3.500000 0.000000
v 3.171353 3.587791 0.000000
v 3.145746 3.672208 0.000000
v 3.104161 3.750007 0.000000
v 3.048198 3.818198 0.000000
v 2.980007 3.874161 0.000000
v 2.902208 3.915746 0.000000
v 2.817791 3.941353 0.000000
v 2.730000 3.950000 0.000000
v 2.642209 3.941353 0.000000
v 2.557792 3.915746 0.000000
v 2.479993 3.874161 0.000000
v 2.411802 3.818198 0.000000
v 2.355839 3.750007 0.000000
v 2.314254 3.672208 0.000000
v 2.288647 3.587791 0.000000
v 2.280000 3.500000 0.000000
v 2.288647 3.412209 0.000000
v 2.314254 3.327792 0.000000
v 2.355839 3.249993 0.000000
v 2.411802 3.181802 0.000000
v 2.479993 3.125839 0.000000
v 2.557792 3.084254 0.000000
v 2.642209 3.058647 0.000000
v 2.730000 3.050000 0.000000
v 2.817791 3.058647 0.000000
v 2.902208 3.084254 0.000000
v 2.980007 3.125839 0.000000
v 3.048198 3.181802 0.000000
v 3.104161 3.249993 0.000000
v 3.145746 3.327792 0.000000
v 3.171353 3.412209 0.000000
v 3.180000 3.500000 0.750000
v 3.171353 3.587791 0.750000
v 3.145746 3.672208 0.750000
v 3.104161 3.750007 0.750000
v 3.048198 3.818198 0.750000
v 2.980007 3.874161 0.750000
v 2.902208 3.915746 0.750000
v 2.817791 3.941353 0.750000
v 2.730000 3.950000 0.750000
v 2.642209 3.941353 0.750000
v 2.557792 3.915746 0.750000
v 2.479993 3.874161 0.750000
v 2.411802 3.818198 0.750000
v 2.355839 3.750007 0.750000
v 2.314254 3.672208 0.750000
v 2.288647 3.587791 0.750000
v 2.280000 3.500000 0.750000
v 2.288647 3.412209 0.750000
v 2.314254 3.327792 0.750000
v 2.355839 3.249993 0.750000
v 2.411802 3.181802 0.750000
v 2.479993 3.125839 0.750000
v 2.557792 3.084254 0.750000
v 2.642209 3.058647 0.750000
v 2.730000 3.050000 0.750000
v 2.817791 3.058647 0.750000
v 2.902208 3.084254 0.750000
v 2.980007 3.125839 0.750000
v 3.048198 3.181802 0.750000
v 3.104161 3.249993 0.750000
v 3.145746 3.327792 0.750000
v 3.171353 3.412209 0.750000
f 168 167 166 165 164 163 162 161 160 159 158 157 156 155 154 153 152 151 150 149 148 147 146 145 144 143 142 141 140 139 138 137
f 169 170 171 172 173 174 175 176 177 178 179 180 181 182 183 184 185 186 187 188 189 190 191 192 193 194 195 196 197 198 199 200
f 137 138 170 169
f 138 139 171 170
f 139 140 172 171
f 140 141 173 172
f 141 142 174 173
f 142 143 175 174
f 143 144 176 175
f 144 145 177 176
f 145 146 178 177
f 146 147 179 178
f 147 148 180 179
f 148 149 181 180
f 149 150 182 181
f 150 151 183 182
f 151 152 184 183
f 152 153 185 184
f 153 154 186 185
f 154 155 187 186
f 155 156 188 187
f 156 157 189 188
f 157 158 190 189
f 158 159 191 190
f 159 160 192 191
f 160 161 193 192
f 161 162 194 193
f 162 163 195 194
f 163 164 196 195
f 164 165 197 196
f 165 166 198 197
f 166 167 199 198
f 167 168 200 199
f 168 137 169 200
o dining_chair_1
v 2.000000 2.530000 0.000000
v 2.450000 2.530000 0.000000
v 2.450000 3.030000 0.000000
v 2.000000 3.030000 0.000000
v 2.000000 2.530000 0.800000
v 2.450000 2.530000 0.800000
v 2.450000 3.030000 0.800000
v 2.000000 3.030000 0.800000
f 201 204 203 202
f 205 206 207 208
f 201 202 206 205
f 202 203 207 206
f 203 204 208 207
f 204 201 205 208
o dining_chair_2
v 3.160000 2.530000 0.000000
v 3.610000 2.530000 0.000000
v 3.610000 3.030000 0.000000
v 3.160000 3.030000 0.000000
v 3.160000 2.530000 0.800000
v 3.610000 2.530000 0.800000
v 3.610000 3.030000 0.800000
v 3.160000 3.030000 0.800000
f 209 212 211 210
f 213 214 215 216
f 209 210 214 213
f 210 211 215 214
f 211 212 216 215
f 212 209 213 216
o hall_leaf
v 0.000000 0.000000 0.000000
v 0.363192 0.712805 0.000000
v 0.363192 0.712805 2.050000
v 0.000000 0.000000 2.050000
f 217 218 219 220
o kitchen_leaf
v 1.000000 3.200000 0.000000
v 0.636808 3.912805 0.000000
v 0.636808 3.912805 2.050000
v 1.000000 3.200000 2.050000
f 221 222 223 224
